<?xml version="1.0" standalone="no"?>
<!DOCTYPE svg PUBLIC "-//W3C//DTD SVG 20010904//EN"
 "http://www.w3.org/TR/2001/REC-SVG-20010904/DTD/svg10.dtd">
<svg version="1.0" xmlns="http://www.w3.org/2000/svg"
 width="1000.000000pt" height="1000.000000pt" viewBox="0 0 1000.000000 1000.000000"
 preserveAspectRatio="xMidYMid meet">
<metadata>
Created by potrace 1.14, written by Peter Selinger 2001-2017
</metadata>
<g transform="translate(0.000000,1000.000000) scale(0.100000,-0.100000)"
fill="#000000" stroke="none">
<path d="M5128 9995 c-1 -1 -39 -6 -83 -10 -73 -6 -150 -15 -245 -31 -67 -11
-225 -44 -280 -60 -30 -8 -64 -17 -76 -19 -21 -5 -191 -61 -274 -90 -46 -17
-67 -26 -155 -65 -61 -28 -99 -42 -104 -40 -2 1 -7 -2 -10 -7 -3 -5 -40 -26
-81 -47 -41 -20 -97 -51 -125 -67 -27 -16 -57 -33 -65 -36 -8 -4 -19 -11 -25
-15 -5 -5 -46 -32 -90 -61 -108 -69 -251 -178 -355 -269 -102 -89 -280 -267
-280 -279 0 -5 -4 -9 -8 -9 -4 0 -29 -26 -55 -57 -26 -32 -53 -65 -59 -73
-101 -118 -328 -462 -328 -495 0 -7 -4 -15 -8 -17 -4 -1 -29 -48 -56 -103 -27
-55 -53 -107 -57 -115 -11 -19 -13 -23 -61 -150 -22 -58 -44 -114 -48 -125 -5
-11 -16 -47 -25 -80 -9 -33 -21 -71 -26 -85 -10 -31 -39 -146 -45 -180 -3 -14
-7 -33 -10 -42 -3 -10 -7 -29 -10 -43 -2 -14 -6 -37 -9 -52 -20 -115 -25 -143
-30 -183 -5 -46 -12 -115 -20 -205 -12 -145 -2 -483 20 -625 2 -19 8 -57 11
-85 3 -27 8 -59 11 -70 2 -11 5 -29 7 -40 2 -11 6 -29 9 -40 4 -11 9 -36 12
-55 6 -42 13 -75 16 -75 1 0 3 -9 4 -20 6 -50 84 -293 140 -435 31 -80 165
-362 195 -410 5 -8 37 -60 71 -115 201 -329 469 -628 775 -866 38 -30 75 -59
82 -66 7 -7 17 -13 22 -13 5 0 15 -6 22 -13 21 -21 134 -95 237 -156 128 -76
341 -179 471 -229 134 -51 143 -54 155 -58 6 -1 37 -11 70 -23 32 -11 63 -17
67 -15 4 3 8 1 8 -4 0 -5 6 -9 13 -9 6 0 48 -10 92 -21 44 -12 92 -23 108 -26
15 -3 35 -7 45 -10 9 -3 33 -8 52 -10 19 -3 46 -7 60 -10 34 -8 87 -15 140
-21 25 -2 56 -6 69 -9 13 -3 95 -8 182 -11 l159 -7 0 544 0 544 -42 1 c-70 1
-240 13 -247 17 -3 2 -33 7 -66 11 -32 3 -62 8 -65 10 -4 2 -17 6 -31 9 -137
27 -259 63 -364 105 -11 5 -31 13 -45 18 -63 25 -306 149 -320 163 -3 3 -44
31 -92 63 -48 32 -93 63 -100 70 -7 7 -38 32 -68 57 -98 80 -242 227 -322 330
-15 19 -40 51 -55 71 -15 19 -37 52 -48 72 -11 20 -23 37 -27 37 -5 0 -8 5 -8
11 0 6 -8 23 -19 37 -10 15 -41 70 -68 122 -43 81 -64 128 -124 275 -13 33
-60 187 -69 230 -28 129 -41 195 -45 235 -2 25 -7 70 -10 100 -15 149 -6 421
19 555 8 44 17 94 21 110 3 17 8 41 12 55 4 14 8 30 8 35 1 6 7 28 13 50 6 22
11 42 10 45 -1 3 4 15 11 28 7 13 14 31 16 40 12 62 122 304 185 408 22 36 40
70 40 74 0 5 4 10 8 12 4 2 19 21 32 43 86 141 301 371 470 503 58 45 110 87
117 92 7 6 14 10 17 10 2 0 32 18 66 41 59 39 254 141 316 166 117 46 168 64
229 82 74 21 178 46 233 56 39 6 77 12 117 19 167 27 462 23 650 -9 122 -21
227 -45 275 -62 18 -7 28 -10 55 -17 121 -30 384 -155 523 -247 41 -27 75 -49
78 -49 5 0 40 -28 66 -52 10 -10 21 -18 24 -18 22 0 288 -257 343 -330 14 -19
36 -46 49 -60 33 -36 142 -197 142 -210 0 -5 3 -10 8 -10 4 0 16 -19 27 -43
11 -23 23 -44 26 -47 10 -7 81 -162 112 -240 13 -36 28 -74 32 -85 5 -11 9
-23 10 -27 2 -5 3 -9 5 -10 1 -2 3 -10 6 -18 2 -8 11 -40 19 -70 9 -30 18 -62
20 -70 41 -174 63 -330 67 -477 l2 -73 544 0 543 0 -5 138 c-3 75 -8 151 -10
167 -2 17 -7 62 -11 100 -4 39 -9 78 -11 88 -10 43 -12 55 -18 100 -12 80 -44
217 -78 332 -11 39 -21 75 -23 80 -2 9 -6 21 -22 63 -3 9 -7 20 -8 25 -2 4 -3
8 -5 10 -1 1 -3 9 -5 18 -7 37 -122 299 -178 408 -66 128 -184 324 -198 329
-5 2 -9 8 -9 14 0 10 -49 79 -65 90 -7 5 -7 8 0 8 6 0 6 3 -1 8 -5 4 -37 41
-69 82 -33 41 -63 80 -67 85 -48 60 -199 217 -304 315 -129 121 -401 323 -535
398 -75 42 -84 47 -89 52 -6 7 -219 111 -284 140 -185 82 -385 147 -631 206
-11 2 -34 6 -50 8 -17 3 -42 7 -55 10 -36 8 -80 16 -120 21 -19 2 -55 7 -80
11 -25 4 -63 9 -85 11 -51 5 -532 13 -537 8z"/>
<path d="M4672 6702 l-22 -3 2 -541 3 -541 75 -3 c72 -3 144 -9 220 -18 73 -9
253 -45 290 -58 8 -3 66 -22 128 -43 63 -20 150 -53 195 -73 109 -49 306 -160
347 -194 11 -10 22 -18 25 -18 5 0 74 -50 140 -103 67 -53 268 -258 327 -332
30 -38 74 -99 98 -135 24 -36 52 -78 63 -94 46 -67 190 -368 202 -421 1 -5 7
-23 13 -38 7 -16 12 -33 12 -38 0 -5 9 -38 20 -72 20 -65 23 -77 45 -197 16
-87 24 -145 31 -215 6 -65 6 -360 0 -405 -3 -19 -8 -59 -12 -89 -7 -57 -11
-86 -14 -86 -1 0 -3 -9 -4 -20 -2 -11 -6 -39 -10 -62 -4 -24 -8 -46 -8 -50 0
-5 -3 -12 -8 -18 -4 -5 -11 -26 -15 -45 -16 -83 -110 -339 -130 -352 -5 -4 -6
-8 -2 -8 9 0 -61 -137 -81 -158 -7 -8 -10 -18 -7 -23 4 -5 1 -9 -4 -9 -6 0
-11 -7 -11 -15 0 -8 -3 -15 -8 -15 -4 0 -16 -17 -27 -38 -11 -20 -26 -43 -33
-50 -6 -8 -17 -23 -23 -35 -7 -11 -16 -26 -20 -31 -5 -6 -23 -29 -40 -51 -152
-198 -369 -396 -579 -529 -90 -57 -282 -154 -365 -185 -33 -13 -69 -27 -80
-31 -44 -18 -168 -56 -215 -66 -30 -6 -57 -12 -90 -19 -139 -32 -222 -39 -450
-39 -181 -1 -307 7 -355 21 -11 3 -31 7 -45 8 -52 5 -219 49 -330 87 -219 75
-551 257 -665 365 -8 7 -16 13 -18 13 -8 0 -126 109 -209 195 -44 44 -113 125
-154 180 -42 55 -82 108 -90 118 -8 9 -14 20 -14 23 0 3 -16 31 -37 62 -35 55
-114 208 -146 282 -17 40 -41 103 -43 110 -1 6 -13 37 -24 65 -5 11 -11 31
-14 45 -4 14 -18 70 -32 125 -29 111 -41 175 -48 250 -3 28 -8 69 -10 91 -3
23 -7 76 -8 118 -2 74 -2 76 -27 77 -28 0 -975 0 -1029 -1 l-34 0 6 -137 c7
-146 9 -173 21 -268 9 -76 13 -104 36 -225 17 -90 19 -100 45 -200 14 -52 27
-102 29 -110 2 -8 9 -28 15 -45 6 -16 13 -37 15 -45 7 -28 65 -191 85 -235 11
-25 30 -66 41 -93 50 -111 153 -310 187 -361 6 -9 42 -63 80 -121 71 -108 223
-308 283 -371 19 -20 59 -62 90 -95 83 -86 195 -192 267 -249 34 -27 62 -53
62 -57 0 -5 5 -8 10 -8 6 0 38 -22 73 -49 74 -58 215 -151 228 -151 5 0 9 -4
9 -10 0 -5 4 -10 9 -10 6 0 30 -13 54 -30 25 -16 49 -30 54 -30 4 0 25 -11 46
-25 20 -14 37 -23 37 -21 0 3 21 -7 47 -22 27 -15 59 -32 73 -39 103 -47 141
-63 146 -63 3 0 20 -7 37 -15 99 -45 349 -125 482 -154 177 -38 222 -46 369
-65 152 -20 530 -27 666 -13 36 4 90 9 120 12 68 7 115 13 115 15 0 1 15 3 34
6 39 5 65 10 101 18 14 3 36 8 50 10 14 3 36 8 50 11 14 4 34 8 45 9 11 2 20
4 20 5 0 2 7 4 15 6 145 29 622 207 660 245 3 3 46 25 95 50 50 25 92 48 93
53 2 4 8 7 14 7 29 0 456 303 466 331 2 5 7 9 12 9 5 0 22 12 37 28 142 134
228 220 283 282 36 40 74 83 85 96 11 12 29 35 40 50 11 15 36 49 57 75 62 78
172 248 240 369 61 108 148 282 152 305 2 5 12 30 23 55 22 46 73 181 77 203
2 6 6 21 10 32 19 49 27 75 46 150 12 44 24 89 27 100 2 11 6 29 8 40 2 11 4
20 5 20 1 0 3 9 5 20 4 22 17 85 21 100 1 6 5 30 8 55 4 25 11 69 16 98 5 29
9 56 9 60 -1 4 -1 9 0 12 4 11 11 99 16 204 3 59 7 112 10 116 3 5 1 11 -5 15
-6 4 -7 11 -4 17 4 6 7 30 7 52 -2 63 -13 270 -17 302 -2 16 -7 54 -10 84 -4
30 -9 66 -11 80 -3 14 -7 40 -10 58 -11 67 -16 98 -26 142 -6 25 -12 54 -15
65 -3 16 -14 64 -19 85 -26 104 -116 369 -154 455 -26 58 -153 315 -173 350
-34 60 -101 169 -110 180 -5 6 -20 28 -35 50 -61 93 -83 123 -98 135 -8 7 -15
16 -15 21 0 5 -8 17 -17 27 -10 10 -34 38 -53 62 -62 77 -102 121 -216 234
-139 140 -166 164 -294 264 -58 45 -116 91 -130 102 -14 11 -31 20 -37 20 -7
0 -13 5 -13 10 0 6 -6 10 -14 10 -8 0 -16 4 -18 9 -9 26 -355 216 -518 286
-36 15 -84 36 -107 46 -24 11 -49 19 -57 19 -8 0 -18 5 -21 10 -4 6 -11 8 -16
5 -5 -4 -9 -1 -9 6 0 7 -3 9 -6 6 -4 -3 -15 -2 -26 4 -11 6 -27 12 -36 14 -10
2 -56 14 -102 28 -101 31 -231 63 -281 71 -20 3 -42 8 -50 10 -14 5 -75 16
-119 21 -51 6 -134 17 -152 20 -11 2 -79 7 -151 10 -73 4 -136 7 -142 9 -5 1
-20 0 -33 -2z"/>
</g>
</svg>
