<svg width="32" height="32" viewBox="0 0 32 32" fill="none" xmlns="http://www.w3.org/2000/svg">
<path d="M11.803 24.745C11.803 24.745 10.579 25.458 12.672 25.697C15.208 25.989 16.505 25.948 19.297 25.416C19.297 25.416 20.03 25.88 21.057 26.281C14.792 28.964 6.88004 26.12 11.802 24.745H11.803ZM11.036 21.245C11.036 21.245 9.66104 22.26 11.755 22.473C14.47 22.754 16.604 22.781 20.307 22.068C20.307 22.068 20.818 22.584 21.626 22.869C14.053 25.082 5.61504 23.041 11.037 21.245H11.036ZM17.489 15.303C19.03 17.079 17.082 18.678 17.082 18.678C17.082 18.678 20.999 16.651 19.202 14.121C17.521 11.756 16.229 10.585 23.207 6.537C23.207 6.537 12.254 9.272 17.488 15.304L17.489 15.303ZM25.771 27.339C25.771 27.339 26.678 28.083 24.776 28.662C21.161 29.755 9.72904 30.083 6.55204 28.703C5.41204 28.208 7.55204 27.516 8.22404 27.375C8.92704 27.219 9.32804 27.251 9.32804 27.251C8.05704 26.355 1.12004 29.006 5.80304 29.766C18.579 31.839 29.088 28.834 25.771 27.339V27.339ZM12.391 17.615C12.391 17.615 6.57404 18.995 10.328 19.495C11.917 19.708 15.079 19.662 18.027 19.412C20.432 19.208 22.85 18.776 22.85 18.776C22.85 18.776 22.001 19.14 21.386 19.563C15.479 21.115 4.06904 20.391 7.35504 18.803C10.131 17.464 12.391 17.615 12.391 17.615V17.615ZM22.823 23.448C28.823 20.323 26.047 17.328 24.115 17.735C23.64 17.828 23.427 17.918 23.427 17.918C23.427 17.918 23.599 17.641 23.938 17.522C27.771 16.173 30.719 21.495 22.703 23.605C22.703 23.6 22.798 23.522 22.823 23.449V23.448ZM19.203 0C19.203 0 22.527 3.323 16.047 8.437C10.855 12.541 14.864 14.88 16.047 17.552C13.016 14.817 10.792 12.412 12.282 10.172C14.474 6.875 20.542 5.281 19.203 0ZM12.979 31.901C18.74 32.265 27.588 31.693 27.803 28.969C27.803 28.969 27.396 30 23.036 30.822C18.12 31.749 12.052 31.639 8.45304 31.046C8.45304 31.046 9.19303 31.655 12.978 31.901H12.979Z" fill="#FCFCFC"/>
</svg>
