<svg width="115" height="61" viewBox="0 0 115 61" fill="none" xmlns="http://www.w3.org/2000/svg">
<path d="M19.3438 14.624C19.1304 14.3893 18.8211 14.144 18.4158 13.888C18.0104 13.6107 17.5304 13.3547 16.9758 13.12C16.4211 12.8853 15.8238 12.6933 15.1838 12.544C14.5438 12.3947 13.8824 12.32 13.1998 12.32C11.7064 12.32 10.5971 12.5973 9.87175 13.152C9.14642 13.7067 8.78375 14.4747 8.78375 15.456C8.78375 16.1813 8.98642 16.7573 9.39175 17.184C9.79708 17.5893 10.4158 17.9307 11.2478 18.208C12.0798 18.4853 13.1251 18.784 14.3838 19.104C15.9198 19.4667 17.2531 19.904 18.3838 20.416C19.5144 20.9067 20.3784 21.568 20.9757 22.4C21.5731 23.232 21.8718 24.3307 21.8718 25.696C21.8718 26.848 21.6584 27.84 21.2318 28.672C20.8051 29.504 20.2078 30.1867 19.4398 30.72C18.6718 31.232 17.7864 31.616 16.7838 31.872C15.7811 32.1067 14.7038 32.224 13.5518 32.224C12.4211 32.224 11.2904 32.1067 10.1598 31.872C9.05042 31.6373 7.98375 31.296 6.95975 30.848C5.95708 30.3787 5.02908 29.8133 4.17575 29.152L5.80775 26.08C6.08508 26.3573 6.47975 26.6667 6.99175 27.008C7.52508 27.328 8.13308 27.6373 8.81575 27.936C9.51975 28.2347 10.2771 28.4907 11.0878 28.704C11.9198 28.896 12.7624 28.992 13.6158 28.992C15.0451 28.992 16.1331 28.7467 16.8798 28.256C17.6478 27.744 18.0318 27.0187 18.0318 26.08C18.0318 25.312 17.7864 24.704 17.2958 24.256C16.8051 23.7867 16.0904 23.392 15.1518 23.072C14.2131 22.752 13.0931 22.432 11.7917 22.112C10.2984 21.7067 9.05042 21.2693 8.04775 20.8C7.04508 20.3093 6.28775 19.6907 5.77575 18.944C5.28508 18.176 5.03975 17.2053 5.03975 16.032C5.03975 14.5387 5.40242 13.28 6.12775 12.256C6.85308 11.2107 7.83442 10.432 9.07175 9.92C10.3304 9.38667 11.7384 9.12 13.2958 9.12C14.3198 9.12 15.2904 9.23733 16.2078 9.472C17.1251 9.68533 17.9784 9.984 18.7678 10.368C19.5784 10.752 20.3144 11.1893 20.9757 11.68L19.3438 14.624ZM33.0503 15.936V32H29.4663V9.28H32.4103L45.2743 25.696V9.312H48.8903V32H45.7543L33.0503 15.936ZM57.9975 32V9.28H61.5815V32H57.9975ZM70.7163 32V9.28H80.2523C81.2763 9.28 82.2149 9.49333 83.0683 9.92C83.9216 10.3467 84.6683 10.912 85.3083 11.616C85.9483 12.32 86.4389 13.1093 86.7803 13.984C87.1216 14.8587 87.2923 15.7547 87.2923 16.672C87.2923 17.9307 87.0043 19.136 86.4283 20.288C85.8736 21.4187 85.0736 22.336 84.0283 23.04C83.0043 23.744 81.8096 24.096 80.4443 24.096H74.3003V32H70.7163ZM74.3003 20.928H80.2203C80.9029 20.928 81.5003 20.7467 82.0123 20.384C82.5243 20 82.9189 19.488 83.1963 18.848C83.4949 18.208 83.6443 17.4827 83.6443 16.672C83.6443 15.84 83.4736 15.104 83.1323 14.464C82.7909 13.824 82.3429 13.3333 81.7883 12.992C81.2549 12.6293 80.6683 12.448 80.0283 12.448H74.3003V20.928ZM108.094 14.624C107.88 14.3893 107.571 14.144 107.166 13.888C106.76 13.6107 106.28 13.3547 105.726 13.12C105.171 12.8853 104.574 12.6933 103.934 12.544C103.294 12.3947 102.632 12.32 101.95 12.32C100.456 12.32 99.3471 12.5973 98.6218 13.152C97.8964 13.7067 97.5338 14.4747 97.5338 15.456C97.5338 16.1813 97.7364 16.7573 98.1418 17.184C98.5471 17.5893 99.1658 17.9307 99.9978 18.208C100.83 18.4853 101.875 18.784 103.134 19.104C104.67 19.4667 106.003 19.904 107.134 20.416C108.264 20.9067 109.128 21.568 109.726 22.4C110.323 23.232 110.622 24.3307 110.622 25.696C110.622 26.848 110.408 27.84 109.982 28.672C109.555 29.504 108.958 30.1867 108.19 30.72C107.422 31.232 106.536 31.616 105.534 31.872C104.531 32.1067 103.454 32.224 102.302 32.224C101.171 32.224 100.04 32.1067 98.9098 31.872C97.8004 31.6373 96.7338 31.296 95.7098 30.848C94.7071 30.3787 93.7791 29.8133 92.9258 29.152L94.5578 26.08C94.8351 26.3573 95.2298 26.6667 95.7418 27.008C96.2751 27.328 96.8831 27.6373 97.5658 27.936C98.2698 28.2347 99.0271 28.4907 99.8378 28.704C100.67 28.896 101.512 28.992 102.366 28.992C103.795 28.992 104.883 28.7467 105.63 28.256C106.398 27.744 106.782 27.0187 106.782 26.08C106.782 25.312 106.536 24.704 106.046 24.256C105.555 23.7867 104.84 23.392 103.902 23.072C102.963 22.752 101.843 22.432 100.542 22.112C99.0484 21.7067 97.8004 21.2693 96.7977 20.8C95.7951 20.3093 95.0378 19.6907 94.5258 18.944C94.0351 18.176 93.7898 17.2053 93.7898 16.032C93.7898 14.5387 94.1524 13.28 94.8778 12.256C95.6031 11.2107 96.5844 10.432 97.8218 9.92C99.0804 9.38667 100.488 9.12 102.046 9.12C103.07 9.12 104.04 9.23733 104.958 9.472C105.875 9.68533 106.728 9.984 107.518 10.368C108.328 10.752 109.064 11.1893 109.726 11.68L108.094 14.624Z" fill="#FCFCFC"/>
<path d="M1.0715 50.24C1.0715 49.5573 1.18883 48.8853 1.4235 48.224C1.66883 47.552 2.02083 46.944 2.4795 46.4C2.93817 45.8453 3.49817 45.4027 4.1595 45.072C4.8315 44.7413 5.59417 44.576 6.4475 44.576C7.46083 44.576 8.32483 44.8107 9.0395 45.28C9.75417 45.7387 10.2875 46.3307 10.6395 47.056L9.9675 47.44C9.70083 46.9173 9.37017 46.5013 8.9755 46.192C8.5915 45.8827 8.1755 45.664 7.7275 45.536C7.2795 45.3973 6.8315 45.328 6.3835 45.328C5.66883 45.328 5.02883 45.472 4.4635 45.76C3.90883 46.048 3.4395 46.432 3.0555 46.912C2.6715 47.392 2.37817 47.9253 2.1755 48.512C1.9835 49.0987 1.8875 49.6907 1.8875 50.288C1.8875 50.96 2.00483 51.6 2.2395 52.208C2.47417 52.8053 2.79417 53.3387 3.1995 53.808C3.6155 54.2773 4.0955 54.6507 4.6395 54.928C5.19417 55.2053 5.7915 55.344 6.4315 55.344C6.89017 55.344 7.35417 55.2693 7.8235 55.12C8.3035 54.96 8.7515 54.72 9.1675 54.4C9.5835 54.0693 9.9195 53.6427 10.1755 53.12L10.8795 53.456C10.6342 54.0213 10.2662 54.5013 9.7755 54.896C9.28483 55.2907 8.74083 55.5893 8.1435 55.792C7.54617 55.9947 6.95417 56.096 6.3675 56.096C5.5995 56.096 4.89017 55.9307 4.2395 55.6C3.58883 55.2587 3.0235 54.8107 2.5435 54.256C2.07417 53.6907 1.7115 53.0613 1.4555 52.368C1.1995 51.664 1.0715 50.9547 1.0715 50.24ZM16.8704 56.16C16.2837 56.16 15.7397 56.048 15.2384 55.824C14.7477 55.6 14.321 55.2907 13.9584 54.896C13.5957 54.4907 13.313 54.0267 13.1104 53.504C12.9077 52.9813 12.8064 52.432 12.8064 51.856C12.8064 51.2693 12.9077 50.72 13.1104 50.208C13.313 49.6853 13.5957 49.2267 13.9584 48.832C14.3317 48.4267 14.7637 48.112 15.2544 47.888C15.7557 47.6533 16.2944 47.536 16.8704 47.536C17.4464 47.536 17.9797 47.6533 18.4704 47.888C18.961 48.112 19.393 48.4267 19.7664 48.832C20.1397 49.2267 20.4277 49.6853 20.6304 50.208C20.833 50.72 20.9344 51.2693 20.9344 51.856C20.9344 52.432 20.833 52.9813 20.6304 53.504C20.4277 54.0267 20.1397 54.4907 19.7664 54.896C19.4037 55.2907 18.9717 55.6 18.4704 55.824C17.9797 56.048 17.4464 56.16 16.8704 56.16ZM13.6064 51.888C13.6064 52.5387 13.7504 53.136 14.0384 53.68C14.337 54.2133 14.7317 54.64 15.2224 54.96C15.713 55.28 16.257 55.44 16.8544 55.44C17.4517 55.44 17.9957 55.28 18.4864 54.96C18.9877 54.6293 19.3824 54.192 19.6704 53.648C19.969 53.0933 20.1184 52.4907 20.1184 51.84C20.1184 51.1893 19.969 50.592 19.6704 50.048C19.3824 49.504 18.9877 49.072 18.4864 48.752C17.9957 48.4213 17.457 48.256 16.8704 48.256C16.273 48.256 15.729 48.4213 15.2384 48.752C14.7477 49.0827 14.353 49.52 14.0544 50.064C13.7557 50.608 13.6064 51.216 13.6064 51.888ZM22.9951 51.856C22.9951 51.0773 23.1605 50.3627 23.4911 49.712C23.8218 49.0613 24.2751 48.5387 24.8511 48.144C25.4271 47.7387 26.0831 47.536 26.8191 47.536C27.5445 47.536 28.1845 47.728 28.7391 48.112C29.3045 48.496 29.7471 48.9547 30.0671 49.488V44.32H30.8671V54.944C30.8671 55.072 30.8938 55.168 30.9471 55.232C31.0111 55.296 31.0965 55.3333 31.2031 55.344V56C31.0325 56.0213 30.9045 56.0267 30.8191 56.016C30.6271 55.984 30.4671 55.8933 30.3391 55.744C30.2111 55.5947 30.1471 55.4347 30.1471 55.264V54.336C29.8058 54.8907 29.3471 55.3333 28.7711 55.664C28.1951 55.9947 27.6031 56.16 26.9951 56.16C26.4191 56.16 25.8858 56.0427 25.3951 55.808C24.9045 55.5627 24.4778 55.2373 24.1151 54.832C23.7631 54.4267 23.4858 53.968 23.2831 53.456C23.0911 52.944 22.9951 52.4107 22.9951 51.856ZM30.0671 53.2V50.464C29.9178 50.0587 29.6778 49.6907 29.3471 49.36C29.0165 49.0187 28.6431 48.752 28.2271 48.56C27.8111 48.3573 27.4005 48.256 26.9951 48.256C26.5151 48.256 26.0778 48.3573 25.6831 48.56C25.2991 48.7627 24.9631 49.0347 24.6751 49.376C24.3978 49.7173 24.1845 50.1067 24.0351 50.544C23.8858 50.9707 23.8111 51.4133 23.8111 51.872C23.8111 52.3413 23.8965 52.7947 24.0671 53.232C24.2378 53.6587 24.4725 54.0427 24.7711 54.384C25.0805 54.7147 25.4325 54.976 25.8271 55.168C26.2325 55.3493 26.6698 55.44 27.1391 55.44C27.4271 55.44 27.7311 55.3813 28.0511 55.264C28.3818 55.1467 28.6911 54.9867 28.9791 54.784C29.2778 54.5707 29.5231 54.3307 29.7151 54.064C29.9178 53.7867 30.0351 53.4987 30.0671 53.2ZM37.6709 56.16C37.0842 56.16 36.5402 56.048 36.0389 55.824C35.5375 55.5893 35.1002 55.2747 34.7269 54.88C34.3642 54.4747 34.0762 54.0107 33.8629 53.488C33.6602 52.9547 33.5589 52.3947 33.5589 51.808C33.5589 51.0187 33.7349 50.304 34.0869 49.664C34.4389 49.024 34.9242 48.512 35.5429 48.128C36.1615 47.7333 36.8549 47.536 37.6229 47.536C38.4122 47.536 39.1109 47.7333 39.7189 48.128C40.3269 48.5227 40.8069 49.0453 41.1589 49.696C41.5215 50.336 41.7029 51.04 41.7029 51.808C41.7029 51.872 41.7029 51.936 41.7029 52C41.7029 52.064 41.6975 52.1173 41.6869 52.16H34.3909C34.4335 52.7893 34.6095 53.36 34.9189 53.872C35.2282 54.384 35.6229 54.7893 36.1029 55.088C36.5935 55.376 37.1269 55.52 37.7029 55.52C38.2789 55.52 38.8229 55.3707 39.3349 55.072C39.8469 54.7733 40.2042 54.3893 40.4069 53.92L41.1109 54.112C40.9509 54.5067 40.6949 54.8587 40.3429 55.168C40.0015 55.4773 39.5962 55.7227 39.1269 55.904C38.6682 56.0747 38.1829 56.16 37.6709 56.16ZM34.3589 51.536H40.9349C40.8922 50.8853 40.7215 50.3093 40.4229 49.808C40.1242 49.3067 39.7295 48.912 39.2389 48.624C38.7589 48.336 38.2255 48.192 37.6389 48.192C37.0522 48.192 36.5189 48.336 36.0389 48.624C35.5589 48.912 35.1695 49.3067 34.8709 49.808C34.5722 50.3093 34.4015 50.8853 34.3589 51.536ZM51.6364 56.16C50.975 56.16 50.3617 56.048 49.7964 55.824C49.231 55.6 48.735 55.2587 48.3084 54.8L48.6764 54.24C49.135 54.6773 49.599 54.9973 50.0684 55.2C50.5377 55.392 51.0497 55.488 51.6044 55.488C52.319 55.488 52.895 55.3387 53.3324 55.04C53.7804 54.7413 54.0044 54.3253 54.0044 53.792C54.0044 53.4293 53.8977 53.152 53.6844 52.96C53.4817 52.7573 53.183 52.5973 52.7884 52.48C52.4044 52.352 51.935 52.2187 51.3804 52.08C50.815 51.9307 50.335 51.776 49.9404 51.616C49.5564 51.456 49.2684 51.248 49.0764 50.992C48.8844 50.736 48.7884 50.3893 48.7884 49.952C48.7884 49.408 48.9217 48.96 49.1884 48.608C49.4657 48.2453 49.8337 47.9787 50.2924 47.808C50.7617 47.6267 51.279 47.536 51.8444 47.536C52.495 47.536 53.0604 47.6427 53.5404 47.856C54.031 48.0693 54.4044 48.352 54.6604 48.704L54.2284 49.216C53.9617 48.8747 53.615 48.624 53.1884 48.464C52.7617 48.2933 52.2924 48.208 51.7804 48.208C51.3964 48.208 51.0337 48.2613 50.6924 48.368C50.351 48.4747 50.0737 48.6507 49.8604 48.896C49.6577 49.1307 49.5564 49.4507 49.5564 49.856C49.5564 50.176 49.631 50.4267 49.7804 50.608C49.9404 50.7893 50.175 50.9387 50.4844 51.056C50.7937 51.1627 51.1777 51.28 51.6364 51.408C52.287 51.568 52.847 51.7333 53.3164 51.904C53.7857 52.0747 54.1484 52.2987 54.4044 52.576C54.6604 52.8427 54.7884 53.2213 54.7884 53.712C54.7884 54.4693 54.5004 55.0667 53.9244 55.504C53.3484 55.9413 52.5857 56.16 51.6364 56.16ZM64.1886 56H63.3886V51.36C63.3886 50.2933 63.234 49.5147 62.9246 49.024C62.626 48.5227 62.146 48.272 61.4846 48.272C61.0153 48.272 60.5513 48.384 60.0926 48.608C59.6446 48.832 59.25 49.1413 58.9086 49.536C58.578 49.92 58.338 50.3573 58.1886 50.848V56H57.3886V47.68H58.1406V49.664C58.3646 49.2373 58.6633 48.8693 59.0366 48.56C59.41 48.24 59.826 47.9893 60.2846 47.808C60.7433 47.6267 61.218 47.536 61.7086 47.536C62.1673 47.536 62.5513 47.6213 62.8606 47.792C63.1806 47.952 63.4366 48.1867 63.6286 48.496C63.8313 48.8053 63.9753 49.1893 64.0606 49.648C64.146 50.1067 64.1886 50.6293 64.1886 51.216V56ZM67.3274 56V47.68H68.1274V56H67.3274ZM67.3274 45.792V44.32H68.1274V45.792H67.3274ZM75.4239 56.16C74.7092 56.16 74.0692 55.9733 73.5039 55.6C72.9492 55.216 72.5012 54.752 72.1599 54.208V59.408H71.3599V47.68H72.0959V49.344C72.4372 48.8107 72.8905 48.3787 73.4559 48.048C74.0212 47.7067 74.6185 47.536 75.2479 47.536C75.8345 47.536 76.3679 47.6587 76.8479 47.904C77.3279 48.1387 77.7439 48.464 78.0959 48.88C78.4585 49.2853 78.7359 49.744 78.9279 50.256C79.1305 50.768 79.2319 51.3013 79.2319 51.856C79.2319 52.624 79.0719 53.3387 78.7519 54C78.4319 54.6507 77.9839 55.1733 77.4079 55.568C76.8425 55.9627 76.1812 56.16 75.4239 56.16ZM75.2319 55.44C75.7225 55.44 76.1599 55.3387 76.5439 55.136C76.9385 54.9333 77.2745 54.6613 77.5519 54.32C77.8292 53.9787 78.0425 53.5947 78.1919 53.168C78.3412 52.7413 78.4159 52.304 78.4159 51.856C78.4159 51.376 78.3305 50.9227 78.1599 50.496C77.9892 50.0587 77.7492 49.6747 77.4399 49.344C77.1412 49.0133 76.7892 48.752 76.3839 48.56C75.9892 48.3573 75.5572 48.256 75.0879 48.256C74.7999 48.256 74.4905 48.3147 74.1599 48.432C73.8399 48.5493 73.5305 48.7147 73.2319 48.928C72.9439 49.1413 72.7039 49.3867 72.5119 49.664C72.3199 49.9307 72.2025 50.208 72.1599 50.496V53.232C72.3519 53.6373 72.5972 54.0107 72.8959 54.352C73.2052 54.6827 73.5625 54.9493 73.9679 55.152C74.3732 55.344 74.7945 55.44 75.2319 55.44ZM85.9408 56.16C85.2261 56.16 84.5861 55.9733 84.0208 55.6C83.4661 55.216 83.0181 54.752 82.6768 54.208V59.408H81.8768V47.68H82.6128V49.344C82.9541 48.8107 83.4074 48.3787 83.9728 48.048C84.5381 47.7067 85.1354 47.536 85.7648 47.536C86.3514 47.536 86.8848 47.6587 87.3648 47.904C87.8448 48.1387 88.2608 48.464 88.6128 48.88C88.9754 49.2853 89.2528 49.744 89.4448 50.256C89.6474 50.768 89.7488 51.3013 89.7488 51.856C89.7488 52.624 89.5888 53.3387 89.2688 54C88.9488 54.6507 88.5008 55.1733 87.9248 55.568C87.3594 55.9627 86.6981 56.16 85.9408 56.16ZM85.7488 55.44C86.2394 55.44 86.6768 55.3387 87.0608 55.136C87.4554 54.9333 87.7914 54.6613 88.0688 54.32C88.3461 53.9787 88.5594 53.5947 88.7088 53.168C88.8581 52.7413 88.9328 52.304 88.9328 51.856C88.9328 51.376 88.8474 50.9227 88.6768 50.496C88.5061 50.0587 88.2661 49.6747 87.9568 49.344C87.6581 49.0133 87.3061 48.752 86.9008 48.56C86.5061 48.3573 86.0741 48.256 85.6048 48.256C85.3168 48.256 85.0074 48.3147 84.6768 48.432C84.3568 48.5493 84.0474 48.7147 83.7488 48.928C83.4608 49.1413 83.2208 49.3867 83.0288 49.664C82.8368 49.9307 82.7194 50.208 82.6768 50.496V53.232C82.8688 53.6373 83.1141 54.0107 83.4128 54.352C83.7221 54.6827 84.0794 54.9493 84.4848 55.152C84.8901 55.344 85.3114 55.44 85.7488 55.44ZM95.9296 56.16C95.343 56.16 94.799 56.048 94.2976 55.824C93.7963 55.5893 93.359 55.2747 92.9856 54.88C92.623 54.4747 92.335 54.0107 92.1216 53.488C91.919 52.9547 91.8176 52.3947 91.8176 51.808C91.8176 51.0187 91.9936 50.304 92.3456 49.664C92.6976 49.024 93.183 48.512 93.8016 48.128C94.4203 47.7333 95.1136 47.536 95.8816 47.536C96.671 47.536 97.3696 47.7333 97.9776 48.128C98.5856 48.5227 99.0656 49.0453 99.4176 49.696C99.7803 50.336 99.9616 51.04 99.9616 51.808C99.9616 51.872 99.9616 51.936 99.9616 52C99.9616 52.064 99.9563 52.1173 99.9456 52.16H92.6496C92.6923 52.7893 92.8683 53.36 93.1776 53.872C93.487 54.384 93.8816 54.7893 94.3616 55.088C94.8523 55.376 95.3856 55.52 95.9616 55.52C96.5376 55.52 97.0816 55.3707 97.5936 55.072C98.1056 54.7733 98.463 54.3893 98.6656 53.92L99.3696 54.112C99.2096 54.5067 98.9536 54.8587 98.6016 55.168C98.2603 55.4773 97.855 55.7227 97.3856 55.904C96.927 56.0747 96.4416 56.16 95.9296 56.16ZM92.6176 51.536H99.1936C99.151 50.8853 98.9803 50.3093 98.6816 49.808C98.383 49.3067 97.9883 48.912 97.4976 48.624C97.0176 48.336 96.4843 48.192 95.8976 48.192C95.311 48.192 94.7776 48.336 94.2976 48.624C93.8176 48.912 93.4283 49.3067 93.1296 49.808C92.831 50.3093 92.6603 50.8853 92.6176 51.536ZM106.091 55.6C106.038 55.6213 105.931 55.6747 105.771 55.76C105.611 55.8453 105.409 55.9253 105.163 56C104.918 56.064 104.646 56.096 104.347 56.096C104.059 56.096 103.787 56.0427 103.531 55.936C103.286 55.8187 103.089 55.648 102.939 55.424C102.79 55.2 102.715 54.928 102.715 54.608V48.336H101.547V47.68H102.715V44.832H103.515V47.68H105.451V48.336H103.515V54.416C103.537 54.7253 103.649 54.96 103.851 55.12C104.054 55.2693 104.289 55.344 104.555 55.344C104.886 55.344 105.174 55.2907 105.419 55.184C105.665 55.0667 105.809 54.992 105.851 54.96L106.091 55.6ZM110.848 56.16C110.187 56.16 109.574 56.048 109.008 55.824C108.443 55.6 107.947 55.2587 107.52 54.8L107.888 54.24C108.347 54.6773 108.811 54.9973 109.28 55.2C109.75 55.392 110.262 55.488 110.816 55.488C111.531 55.488 112.107 55.3387 112.544 55.04C112.992 54.7413 113.216 54.3253 113.216 53.792C113.216 53.4293 113.11 53.152 112.896 52.96C112.694 52.7573 112.395 52.5973 112 52.48C111.616 52.352 111.147 52.2187 110.592 52.08C110.027 51.9307 109.547 51.776 109.152 51.616C108.768 51.456 108.48 51.248 108.288 50.992C108.096 50.736 108 50.3893 108 49.952C108 49.408 108.134 48.96 108.4 48.608C108.678 48.2453 109.046 47.9787 109.504 47.808C109.974 47.6267 110.491 47.536 111.056 47.536C111.707 47.536 112.272 47.6427 112.752 47.856C113.243 48.0693 113.616 48.352 113.872 48.704L113.44 49.216C113.174 48.8747 112.827 48.624 112.4 48.464C111.974 48.2933 111.504 48.208 110.992 48.208C110.608 48.208 110.246 48.2613 109.904 48.368C109.563 48.4747 109.286 48.6507 109.072 48.896C108.87 49.1307 108.768 49.4507 108.768 49.856C108.768 50.176 108.843 50.4267 108.992 50.608C109.152 50.7893 109.387 50.9387 109.696 51.056C110.006 51.1627 110.39 51.28 110.848 51.408C111.499 51.568 112.059 51.7333 112.528 51.904C112.998 52.0747 113.36 52.2987 113.616 52.576C113.872 52.8427 114 53.2213 114 53.712C114 54.4693 113.712 55.0667 113.136 55.504C112.56 55.9413 111.798 56.16 110.848 56.16Z" fill="#FFC23C"/>
</svg>
