<svg width="46" height="46" viewBox="0 0 46 46" fill="none" xmlns="http://www.w3.org/2000/svg">
<g clip-path="url(#clip0_16_24)">
<path d="M22.8352 0C11.155 0 11.8833 5.09067 11.8833 5.09067L11.8968 10.3653H23.0403V11.9485H7.475C7.475 11.9485 0 11.0956 0 22.9406C0 34.7856 6.52242 34.3639 6.52242 34.3639H10.4133V28.8688C10.4133 28.8688 10.2043 22.3138 16.8341 22.3138H27.8856C27.8856 22.3138 34.0956 22.4135 34.0956 16.2802V6.13717C34.0956 6.13717 35.0367 0 22.8333 0H22.8352ZM16.6903 3.54583C17.7982 3.54583 18.6952 4.44667 18.6952 5.56217C18.6952 6.67575 17.7982 7.57658 16.6903 7.57658C15.5806 7.57658 14.6855 6.67575 14.6855 5.56217C14.6855 4.44667 15.5806 3.54583 16.6903 3.54583Z" fill="#fcfcfc"/>
<path d="M23.1668 46C34.8431 46 34.1148 40.9093 34.1148 40.9093L34.1014 35.6347H22.9579V34.0515H38.5269C38.5269 34.0515 46.0019 34.9044 46.0019 23.0594C46.0019 11.2144 39.4776 11.6361 39.4776 11.6361H35.5868V17.1312C35.5868 17.1312 35.7957 23.6862 29.1659 23.6862H18.1164C18.1164 23.6862 11.9064 23.5865 11.9064 29.7198V39.8628C11.9064 39.8628 10.9634 46 23.1668 46ZM29.3116 42.4542C28.2019 42.4542 27.3068 41.5533 27.3068 40.4378C27.3068 39.3242 28.2019 38.4234 29.3116 38.4234C30.4194 38.4234 31.3164 39.3242 31.3164 40.4378C31.3164 41.5533 30.4194 42.4542 29.3116 42.4542Z" fill="#fcfcfc"/>
</g>
<defs>
<clipPath id="clip0_16_24">
<rect width="46" height="46" fill="white"/>
</clipPath>
</defs>
</svg>
