<svg width="28" height="28" viewBox="0 0 28 28" fill="none" xmlns="http://www.w3.org/2000/svg">
<path d="M8.16714 8.16717C8.26001 8.07406 8.37033 8.00019 8.4918 7.94979C8.61326 7.89939 8.74348 7.87344 8.87498 7.87344C9.00649 7.87344 9.1367 7.89939 9.25817 7.94979C9.37963 8.00019 9.48996 8.07406 9.58283 8.16717L14.8737 13.46L20.1645 8.16717C20.2575 8.07421 20.3678 8.00047 20.4893 7.95017C20.6107 7.89986 20.7409 7.87397 20.8724 7.87397C21.0038 7.87397 21.134 7.89986 21.2555 7.95017C21.3769 8.00047 21.4873 8.07421 21.5802 8.16717C21.6732 8.26012 21.7469 8.37048 21.7972 8.49193C21.8475 8.61338 21.8734 8.74355 21.8734 8.87501C21.8734 9.00647 21.8475 9.13664 21.7972 9.2581C21.7469 9.37955 21.6732 9.4899 21.5802 9.58286L16.2874 14.8737L21.5802 20.1646C21.6732 20.2575 21.7469 20.3679 21.7972 20.4893C21.8475 20.6108 21.8734 20.7409 21.8734 20.8724C21.8734 21.0039 21.8475 21.134 21.7972 21.2555C21.7469 21.3769 21.6732 21.4873 21.5802 21.5802C21.4873 21.6732 21.3769 21.7469 21.2555 21.7972C21.134 21.8476 21.0038 21.8734 20.8724 21.8734C20.7409 21.8734 20.6107 21.8476 20.4893 21.7972C20.3678 21.7469 20.2575 21.6732 20.1645 21.5802L14.8737 16.2874L9.58283 21.5802C9.48987 21.6732 9.37952 21.7469 9.25807 21.7972C9.13661 21.8476 9.00644 21.8734 8.87498 21.8734C8.74352 21.8734 8.61335 21.8476 8.4919 21.7972C8.37045 21.7469 8.26009 21.6732 8.16714 21.5802C8.07418 21.4873 8.00044 21.3769 7.95014 21.2555C7.89983 21.134 7.87394 21.0039 7.87394 20.8724C7.87394 20.7409 7.89983 20.6108 7.95014 20.4893C8.00044 20.3679 8.07418 20.2575 8.16714 20.1646L13.46 14.8737L8.16714 9.58286C8.07403 9.48999 8.00016 9.37966 7.94976 9.2582C7.89936 9.13673 7.87341 9.00652 7.87341 8.87501C7.87341 8.74351 7.89936 8.61329 7.94976 8.49183C8.00016 8.37036 8.07403 8.26004 8.16714 8.16717Z" fill="#fcfcfc"/>
</svg>
