<svg width="50" height="50" viewBox="0 0 50 50" fill="none" xmlns="http://www.w3.org/2000/svg">
<path d="M15 30C12.2 30 10 27.8 10 25C10 22.2 12.2 20 15 20C17.8 20 20 22.2 20 25C20 27.8 17.8 30 15 30ZM15 22C13.3 22 12 23.3 12 25C12 26.7 13.3 28 15 28C16.7 28 18 26.7 18 25C18 23.3 16.7 22 15 22ZM35 20C32.2 20 30 17.8 30 15C30 12.2 32.2 10 35 10C37.8 10 40 12.2 40 15C40 17.8 37.8 20 35 20ZM35 12C33.3 12 32 13.3 32 15C32 16.7 33.3 18 35 18C36.7 18 38 16.7 38 15C38 13.3 36.7 12 35 12ZM35 40C32.2 40 30 37.8 30 35C30 32.2 32.2 30 35 30C37.8 30 40 32.2 40 35C40 37.8 37.8 40 35 40ZM35 32C33.3 32 32 33.3 32 35C32 36.7 33.3 38 35 38C36.7 38 38 36.7 38 35C38 33.3 36.7 32 35 32Z" fill="#FCFCFC"/>
<path d="M19.0071 25.885L31.8871 32.325L30.9921 34.113L18.1121 27.673L19.0071 25.885ZM30.9931 15.885L31.8871 17.675L19.0071 24.113L18.1131 22.323L30.9931 15.885Z" fill="#FCFCFC"/>
</svg>
